# xmcd CD database file
#
# Track frame offsets:
#	150
#	25120
#	47075
#	69910
#	92915
#	111948
#	133585
#	147818
#	167575
#	188375
#
# Disc length: 2722 seconds
#
# Revision: 0
# Processed by: cddbd v1.5.1PL0 Copyright (c) Steve Scherf et al.
# Submitted via: CDex 1.50Beta7
#
DISCID=7d0aa00a
DTITLE=Bluem of Youth - GROWIN' DAYS
DYEAR=2002
DGENRE=Rock
TTITLE0=GROWIN' DAYS
TTITLE1=サルヴェージュ
TTITLE2=夕立 〜sound of the memory〜
TTITLE3=ID
TTITLE4=ひとひらの夢
TTITLE5=SHINE
TTITLE6=冬の雫 <album version>
TTITLE7=再会
TTITLE8=If <album version>
TTITLE9=望郷
EXTD=YEAR: 2002
EXTT0=
EXTT1=
EXTT2=
EXTT3=
EXTT4=
EXTT5=
EXTT6=
EXTT7=
EXTT8=
EXTT9=
PLAYORDER=
